<svg xmlns="http://www.w3.org/2000/svg" xmlns:xlink="http://www.w3.org/1999/xlink" width="100" height="82" viewBox="0 0 100 82">
  <defs>
    <clipPath id="clip-path">
      <rect id="Rectangle_202" data-name="Rectangle 202" width="100" height="82" transform="translate(-12859 6557)" fill="#fff" stroke="#707070" stroke-width="1"/>
    </clipPath>
  </defs>
  <g id="ai" transform="translate(12859 -6557)" clip-path="url(#clip-path)">
    <g id="ai-2" data-name="ai" transform="translate(-13361.462 6557.987)">
      <path id="Path_3161" data-name="Path 3161" d="M552.982,60.081H529.854L525.149,74.7a1.179,1.179,0,0,1-1.2.9H512.233q-1,0-.7-1.1l20.024-57.669q.3-.9.6-2.053a21.394,21.394,0,0,0,.4-4.055.633.633,0,0,1,.026-.283.62.62,0,0,1,.675-.418h15.919q.7,0,.8.5L572.706,74.6q.3,1-.6,1H559.089a.925.925,0,0,1-1-.7ZM533.458,47.466h15.819q-.6-2-1.4-4.505t-1.7-5.356l-1.8-5.707q-.9-2.853-1.651-5.507t-1.352-4.856h-.1a81.026,81.026,0,0,1-2.1,8.01q-1.4,4.506-2.853,9.211t-2.854,8.71Z" fill="#d9d9d9"/>
      <path id="Path_3162" data-name="Path 3162" d="M586.22,20.634a7.265,7.265,0,0,1-5.507-2.2,7.915,7.915,0,0,1-2.1-5.707,7.343,7.343,0,0,1,2.252-5.557,7.738,7.738,0,0,1,5.557-2.153,7.444,7.444,0,0,1,5.657,2.153,7.723,7.723,0,0,1,2.052,5.557,7.823,7.823,0,0,1-2.152,5.707,7.683,7.683,0,0,1-5.757,2.2ZM579.311,74.6V26.741c0-.6.266-.9.8-.9h12.314q.8,0,.8.9V74.6q0,1-.8,1H580.213Q579.311,75.6,579.311,74.6Z" fill="#d9d9d9"/>
    </g>
  </g>
</svg>
