<svg xmlns="http://www.w3.org/2000/svg" width="16.5" height="16.5" viewBox="0 0 16.5 16.5">
  <path id="copy" d="M12.427,12.427v4.054a.811.811,0,0,1-.811.811H3.1a.811.811,0,0,1-.811-.811V7.967A.811.811,0,0,1,3.1,7.156H7.157m9.324-4.865H7.967a.811.811,0,0,0-.811.811v8.513a.811.811,0,0,0,.811.811h8.514a.811.811,0,0,0,.811-.811V3.1A.811.811,0,0,0,16.481,2.292Z" transform="translate(-1.542 -1.542)" fill="none" stroke="#d4d9d5" stroke-linecap="round" stroke-linejoin="round" stroke-width="1.5"/>
</svg>
