<svg xmlns="http://www.w3.org/2000/svg" xmlns:xlink="http://www.w3.org/1999/xlink" width="100" height="82" viewBox="0 0 100 82">
  <defs>
    <clipPath id="clip-path">
      <rect id="Rectangle_199" data-name="Rectangle 199" width="100" height="82" transform="translate(-13393 6557)" fill="#fff" stroke="#707070" stroke-width="1"/>
    </clipPath>
    <clipPath id="clip-path-2">
      <rect id="Rectangle_194" data-name="Rectangle 194" width="54.72" height="81.035" fill="#fff"/>
    </clipPath>
  </defs>
  <g id="figma" transform="translate(13393 -6557)" clip-path="url(#clip-path)">
    <g id="figma-2" data-name="figma" transform="translate(-13370 6557)" clip-path="url(#clip-path-2)">
      <path id="Path_3172" data-name="Path 3172" d="M13.683,81.035A13.6,13.6,0,0,0,27.36,67.529V54.023H13.683a13.507,13.507,0,1,0,0,27.012Z" fill="#d9d9d9"/>
      <path id="Path_3173" data-name="Path 3173" d="M.005,40.518A13.6,13.6,0,0,1,13.683,27.012H27.36V54.023H13.683A13.6,13.6,0,0,1,.005,40.518Z" fill="#d9d9d9"/>
      <path id="Path_3174" data-name="Path 3174" d="M.005,13.506A13.6,13.6,0,0,1,13.683,0H27.36V27.012H13.683A13.6,13.6,0,0,1,.005,13.506Z" fill="#d9d9d9"/>
      <path id="Path_3175" data-name="Path 3175" d="M27.36,0H41.037A13.6,13.6,0,0,1,54.714,13.506,13.6,13.6,0,0,1,41.037,27.012H27.36Z" fill="#d9d9d9"/>
      <path id="Path_3176" data-name="Path 3176" d="M54.714,40.518A13.678,13.678,0,1,1,41.037,27.012,13.6,13.6,0,0,1,54.714,40.518Z" fill="#d9d9d9"/>
    </g>
  </g>
</svg>
