<svg xmlns="http://www.w3.org/2000/svg" width="400.369" height="193.968" viewBox="0 0 400.369 193.968">
  <g id="Group_178" data-name="Group 178" transform="translate(-2.782 -19)">
    <path id="Path_3248" data-name="Path 3248" d="M200.348,211.01h33.343a10.347,10.347,0,0,0,10.348-10.348V29.348A10.348,10.348,0,0,0,233.692,19H200.348A10.348,10.348,0,0,0,190,29.348V200.663A10.348,10.348,0,0,0,200.348,211.01Z" transform="translate(28.038)" fill="#202a30"/>
    <path id="Path_3249" data-name="Path 3249" d="M313.348,211.01h34.493a10.347,10.347,0,0,0,10.348-10.348V29.348A10.349,10.349,0,0,0,347.841,19H313.348A10.348,10.348,0,0,0,303,29.348V200.663A10.348,10.348,0,0,0,313.348,211.01Z" transform="translate(44.962)" fill="#202a30"/>
    <path id="Path_3250" data-name="Path 3250" d="M297.611,88.1l-41.544-.092c-5.159-.011-4.582,6.654.729,8.414l41.763,13.834c2.884.955,5.392-.438,5.352-2.973l-.217-13.743C303.65,90.791,300.652,88.11,297.611,88.1Z" transform="translate(37.397 10.335)" fill="#202a30"/>
    <path id="Path_3251" data-name="Path 3251" d="M250.1,124.5l41.544.092c5.159.012,4.581-6.655-.729-8.414l-41.763-13.835c-2.884-.954-5.392.439-5.352,2.974l.217,13.743C244.064,121.811,247.061,124.493,250.1,124.5Z" transform="translate(36.096 12.436)" fill="#202a30"/>
    <path id="Path_3252" data-name="Path 3252" d="M177.494,208l12.6-31.229a15.613,15.613,0,0,0-3.9-16.427L27.938,21.32c-4.293-3.772-9.507-2.533-11.645,2.767L3.695,55.316A15.613,15.613,0,0,0,7.6,71.742L165.849,210.765C170.143,214.537,175.357,213.3,177.494,208Z" transform="translate(0 0.021)" fill="#202a30"/>
    <path id="Path_3253" data-name="Path 3253" d="M14.026,197.34l115.113.4L26.4,111.8C-7.947,141.33,3.784,182.489,14.026,197.34Z" transform="translate(0.106 13.897)" fill="#202a30"/>
    <path id="Path_3254" data-name="Path 3254" d="M172.112,19.436,57,19.038l102.738,85.942C194.085,75.446,182.354,34.287,172.112,19.436Z" transform="translate(8.12 0.006)" fill="#202a30"/>
  </g>
</svg>
