<svg xmlns="http://www.w3.org/2000/svg" width="382.811" height="204" viewBox="0 0 382.811 204">
  <g id="footer-logo" transform="translate(0)">
    <g id="Group_1002" data-name="Group 1002" transform="translate(0.934 0)">
      <path id="Path_128" data-name="Path 128" d="M321.963,252.366h30.425a9.4,9.4,0,0,0,9.349-9.442V75.992a9.4,9.4,0,0,0-9.349-9.442H321.963a9.4,9.4,0,0,0-9.349,9.442V242.924A9.4,9.4,0,0,0,321.963,252.366Z" transform="translate(-96.034 -57.985)" fill="#202a30"/>
      <path id="Path_129" data-name="Path 129" d="M434.726,252.366h30.425a9.4,9.4,0,0,0,9.349-9.442V75.992a9.4,9.4,0,0,0-9.349-9.442H434.726a9.4,9.4,0,0,0-9.349,9.442V242.924A9.4,9.4,0,0,0,434.726,252.366Z" transform="translate(-92.624 -57.985)" fill="#202a30"/>
      <path id="Path_130" data-name="Path 130" d="M415.257,140.1l-37.536-.085c-4.661-.01-4.139,6.155.66,7.782l37.731,12.8c2.606.884,4.872-.406,4.836-2.751l-.2-12.712C420.712,142.581,418,140.1,415.257,140.1Z" transform="translate(-94.598 -54.51)" fill="#202a30"/>
      <path id="Path_131" data-name="Path 131" d="M371.494,174.812l37.536.085c4.661.011,4.139-6.155-.66-7.782l-37.733-12.8c-2.605-.884-4.872.405-4.836,2.75l.2,12.711C366.038,172.327,368.746,174.806,371.494,174.812Z" transform="translate(-94.407 -53.825)" fill="#202a30"/>
      <path id="Path_132" data-name="Path 132" d="M290.579,257.974l11.382-28.529a14.377,14.377,0,0,0-3.527-15.006L125.12,60.49c-3.88-3.446-8.59-2.314-10.522,2.528L103.216,91.547a14.373,14.373,0,0,0,3.527,15.005L280.057,260.5C283.936,263.948,288.647,262.815,290.579,257.974Z" transform="translate(-102.392 -58.496)" fill="#202a30"/>
    </g>
    <path id="Path_133" data-name="Path 133" d="M111.01,242.739l104,.369-92.824-79.491C91.157,190.934,101.756,229,111.01,242.739Z" transform="translate(-101.491 -54.368)" fill="#202a30"/>
    <path id="Path_134" data-name="Path 134" d="M292.95,71.407l-104-.368,92.824,79.49C312.8,123.212,302.2,85.143,292.95,71.407Z" transform="translate(-99.022 -57.7)" fill="#202a30"/>
  </g>
</svg>
