<svg xmlns="http://www.w3.org/2000/svg" xmlns:xlink="http://www.w3.org/1999/xlink" width="100" height="82" viewBox="0 0 100 82">
  <defs>
    <clipPath id="clip-path">
      <rect id="Rectangle_207" data-name="Rectangle 207" width="100" height="82" transform="translate(-12083 6557)" fill="#fff" stroke="#707070" stroke-width="1"/>
    </clipPath>
  </defs>
  <g id="jquery" transform="translate(12083 -6557)" clip-path="url(#clip-path)">
    <g id="jquery-2" data-name="jquery" transform="translate(-13374.225 6557.494)">
      <path id="Path_3165" data-name="Path 3165" d="M1305.87,54.907a4.3,4.3,0,0,0,.26.489,2.72,2.72,0,0,0,.15.274c.09.172.18.337.27.5l.52.873c.1.162.19.321.3.48.18.311.39.615.58.926.09.129.17.258.26.387.37.566.7,1.035,1.05,1.491.25.341.5.675.78,1.009.09.126.18.251.28.377l.73.886c.09.1.18.222.27.327.33.39.67.767,1.01,1.151,0,.007.01.013.02.023a10.383,10.383,0,0,0,1.39,1.435l.01.013c.27.271.53.539.81.8l.34.321c.36.344.73.685,1.12,1.015,0,0,.01.007.01.01l.19.165c.34.294.68.585,1.03.856l.41.347c.28.225.57.437.86.658l.45.344c.31.232.64.456.95.681.12.083.23.165.35.241l.1.076.93.608.39.265c.49.311.97.6,1.45.893.14.069.28.146.41.225.36.205.73.413,1.09.6.2.112.4.208.61.311.25.139.5.275.77.413a1.081,1.081,0,0,1,.19.079l.01-.013c.11.05.21.1.32.156.4.2.81.387,1.24.572a2.075,2.075,0,0,1,.25.112c.48.208.95.407,1.45.6.11.033.23.089.34.132.45.169.91.341,1.37.5l.16.06c.51.172,1.01.337,1.52.493.12.033.24.076.37.109a15.5,15.5,0,0,0,1.57.447c33.97,6.161,43.84-20.324,43.84-20.324-8.29,10.747-23.01,13.581-36.95,10.427-.52-.119-1.03-.284-1.55-.437-.74-.209-1.47-.439-2.2-.691l.32.1-.21-.079c-.45-.152-.88-.321-1.32-.489q-.165-.068-.33-.126l-.03-.01c-.49-.2-.96-.394-1.43-.6-.11-.033-.19-.079-.29-.119-.56-.242-1.11-.5-1.66-.761l.46.2c-.12-.053-.24-.11-.35-.172-.31-.146-.62-.311-.93-.466-.23-.11-.46-.227-.68-.351l.06.033c-.37-.2-.74-.413-1.12-.615a3.88,3.88,0,0,0-.37-.218c-.56-.326-1.11-.663-1.66-1.012l.21.126c-.14-.086-.28-.178-.41-.274l.02.013q-.54-.327-1.05-.688c-.11-.073-.21-.152-.33-.231-.35-.243-.71-.495-1.05-.754l.08.056c-.14-.112-.29-.218-.44-.327-.29-.228-.58-.446-.87-.684l-.39-.311q-.63-.5-1.23-1.022v0l-1.15-1.042-.33-.311c-.27-.275-.55-.536-.83-.807l-.32-.331c-.34-.339-.67-.686-1-1.042l-.02-.023-.05-.046c-.35-.385-.7-.774-1.04-1.167-.09-.1-.17-.212-.26-.321l-.75-.909c-.34-.425-.67-.856-1-1.293l-.13-.185c-7.73-10.5-10.53-25-4.34-36.888l-5.46,6.908c-7.03,10.05-6.16,23.118-.79,33.79C1305.6,54.414,1305.74,54.659,1305.87,54.907Z" fill="#d9d9d9"/>
      <path id="Path_3166" data-name="Path 3166" d="M1333.24,44.768l.29.3c.38.364.77.718,1.16,1.071l.05.043c.4.35.85.718,1.3,1.075l.07.053c.12.076.21.165.32.241.46.357.93.7,1.42,1.038l.05.03c.2.149.42.284.65.43.09.059.2.139.3.2.35.225.69.433,1.05.648.05.023.1.053.16.076.29.182.62.357.93.516.11.066.21.116.33.179.22.109.44.225.65.337l.1.046c.45.218.91.423,1.35.625.11.043.21.079.31.126.36.159.74.311,1.1.45.17.056.33.122.48.172.34.126.69.241,1.03.357l.46.149a10.534,10.534,0,0,0,1.48.423c26.24,4.319,32.31-15.777,32.31-15.777-5.47,7.827-16.05,11.558-27.32,8.644-.56-.142-1.12-.3-1.67-.479l.19.053c-.16-.043-.3-.093-.45-.139-.35-.119-.7-.235-1.04-.357l-.47-.179c-.37-.149-.75-.288-1.11-.446-.11-.05-.21-.083-.3-.132-.46-.208-.93-.413-1.38-.632l-.68-.354-.4-.2c-.3-.159-.58-.324-.87-.493a1.591,1.591,0,0,1-.22-.119l.01,0c-.35-.218-.71-.43-1.05-.651-.11-.063-.22-.139-.32-.205l-.69-.446c-.48-.331-.94-.685-1.41-1.028-.11-.1-.21-.175-.32-.261a31.416,31.416,0,0,1-10.72-15.182,23.473,23.473,0,0,1,1.86-18.915l-4.15,5.847c-5.1,7.278-4.81,17.007-.84,24.706a29.213,29.213,0,0,0,2.26,3.767,17.413,17.413,0,0,0,2.6,3.208C1332.45,43.987,1332.84,44.374,1333.24,44.768Z" fill="#d9d9d9"/>
      <path id="Path_3167" data-name="Path 3167" d="M1346.41,5.571a15.157,15.157,0,0,0-1.22,14.676,20.77,20.77,0,0,0,11.93,11.085c.22.083.43.152.65.231l.29.089c.3.1.61.208.92.278,14.49,2.781,18.41-7.4,19.47-8.9-3.45,4.927-9.23,6.111-16.33,4.395a15.306,15.306,0,0,1-1.82-.562l.11.036a20.852,20.852,0,0,1-2.17-.893l.13.056a21.606,21.606,0,0,1-3.61-2.2c-6.34-4.8-10.26-13.925-6.12-21.362Z" fill="#d9d9d9"/>
    </g>
  </g>
</svg>
