<svg xmlns="http://www.w3.org/2000/svg" xmlns:xlink="http://www.w3.org/1999/xlink" width="100" height="82" viewBox="0 0 100 82">
  <defs>
    <clipPath id="clip-path">
      <rect id="Rectangle_208" data-name="Rectangle 208" width="100" height="82" transform="translate(-11900 6557)" fill="#fff" stroke="#707070" stroke-width="1"/>
    </clipPath>
  </defs>
  <g id="js" transform="translate(11900 -6557)" clip-path="url(#clip-path)">
    <path id="js-2" data-name="js" d="M1530.8,53.082c2.93,4.764,6.12,9.329,12.87,9.329,5.67,0,8.64-2.818,8.64-6.718,0-4.667-3.07-6.324-9.31-9.041l-3.42-1.458c-9.87-4.187-16.44-9.435-16.44-20.518,0-10.215,7.82-17.988,20.04-17.988,8.7,0,14.95,3.013,19.46,10.905L1551.99,24.4c-2.35-4.188-4.88-5.836-8.81-5.836-4.01,0-6.55,2.53-6.55,5.836,0,4.086,2.54,5.739,8.42,8.269l3.42,1.458c11.63,4.954,18.19,10.015,18.19,21.391,0,12.258-9.68,18.976-22.67,18.976-12.72,0-19.93-6.379-23.95-14.275Zm-49.11.347c2.14,3.84,5.4,6.794,10.09,6.794,4.48,0,7.07-1.772,7.07-8.659V6.684h14.12V53.735c0,14.271-8.27,20.764-20.36,20.764-10.93,0-18.81-7.4-22.02-14.275Z" transform="translate(-13368.59 6557.316)" fill="#d9d9d9"/>
  </g>
</svg>
