<svg xmlns="http://www.w3.org/2000/svg" width="46" height="46" viewBox="0 0 46 46">
  <path id="linkdin-testi" d="M162.111,448h35.778A5.111,5.111,0,0,1,203,453.111v35.778A5.111,5.111,0,0,1,197.889,494H162.111A5.111,5.111,0,0,1,157,488.889V453.111A5.111,5.111,0,0,1,162.111,448Zm7.667,38.333a1.278,1.278,0,0,0,1.278-1.277V467.167a1.278,1.278,0,0,0-1.278-1.278h-3.834a1.278,1.278,0,0,0-1.277,1.278v17.889a1.277,1.277,0,0,0,1.277,1.277Zm-1.917-23a3.833,3.833,0,1,1,3.833-3.833A3.833,3.833,0,0,1,167.861,463.333Zm26.2,23a1.277,1.277,0,0,0,1.277-1.277V473.3a7.922,7.922,0,0,0-6.951-8.024,7.665,7.665,0,0,0-7.1,3.424v-1.533A1.278,1.278,0,0,0,180,465.889h-3.833a1.278,1.278,0,0,0-1.278,1.278v17.889a1.278,1.278,0,0,0,1.278,1.277H180a1.278,1.278,0,0,0,1.278-1.277v-9.584a3.833,3.833,0,0,1,7.666,0v9.584a1.278,1.278,0,0,0,1.278,1.277Z" transform="translate(-157 -448)" fill="#202a30" fill-rule="evenodd"/>
</svg>
