<svg xmlns="http://www.w3.org/2000/svg" width="146" height="76" viewBox="0 0 146 76">
  <g id="Group_1003" data-name="Group 1003" transform="translate(-30 -24)">
    <g id="Group_1002" data-name="Group 1002">
      <path id="Path_128" data-name="Path 128" d="M316.18,135.776h11.6a3.542,3.542,0,0,0,3.566-3.518V70.068a3.542,3.542,0,0,0-3.566-3.518h-11.6a3.542,3.542,0,0,0-3.566,3.518v62.19A3.542,3.542,0,0,0,316.18,135.776Z" transform="translate(-199.656 -39.359)" fill="#d4d9d5"/>
      <path id="Path_129" data-name="Path 129" d="M428.943,135.776h11.6a3.542,3.542,0,0,0,3.566-3.518V70.068a3.542,3.542,0,0,0-3.566-3.518h-11.6a3.542,3.542,0,0,0-3.566,3.518v62.19A3.542,3.542,0,0,0,428.943,135.776Z" transform="translate(-268.112 -39.359)" fill="#d4d9d5"/>
      <path id="Path_130" data-name="Path 130" d="M390.038,140.042l-14.316-.032c-1.778,0-1.578,2.293.252,2.9l14.39,4.767c.994.329,1.858-.151,1.844-1.025l-.075-4.736A2.15,2.15,0,0,0,390.038,140.042Z" transform="translate(-237.386 -84.157)" fill="#d4d9d5"/>
      <path id="Path_131" data-name="Path 131" d="M367.972,161.779l14.316.032c1.778,0,1.578-2.293-.252-2.9l-14.391-4.767c-.994-.329-1.858.151-1.844,1.025l.075,4.736A2.15,2.15,0,0,0,367.972,161.779Z" transform="translate(-231.938 -92.705)" fill="#d4d9d5"/>
      <path id="Path_132" data-name="Path 132" d="M174.164,132.811l4.341-10.628a5.269,5.269,0,0,0-1.345-5.591l-66.1-57.353a2.379,2.379,0,0,0-4.013.942l-4.341,10.628a5.268,5.268,0,0,0,1.345,5.59l66.1,57.354A2.379,2.379,0,0,0,174.164,132.811Z" transform="translate(-72.035 -34.496)" fill="#d4d9d5"/>
    </g>
    <path id="Path_133" data-name="Path 133" d="M105.121,193.094l39.666.137-35.4-29.614C97.55,173.794,101.592,187.977,105.121,193.094Z" transform="translate(-71.491 -98.917)" fill="#d4d9d5"/>
    <path id="Path_134" data-name="Path 134" d="M228.613,71.176l-39.666-.137,35.4,29.614C236.184,90.476,232.142,76.293,228.613,71.176Z" transform="translate(-124.65 -42.069)" fill="#d4d9d5"/>
  </g>
</svg>
