<svg width="351" height="204" viewBox="0 0 351 204" fill="none" xmlns="http://www.w3.org/2000/svg">
<path d="M199 185L228 185C232.971 185 237 180.971 237 176L237.001 27C237.001 22.0294 232.971 18 228.001 18L199 18C194.03 18 190 22.0294 190 27L190 101.5L190 176C190 180.971 194.03 185 199 185Z" fill="#D4D9D5"/>
<path d="M312 185L342 185C346.971 185 351 180.971 351 176L351.001 27C351.001 22.0294 346.971 18 342 18L312 18C307.03 18 303 22.0294 303 27L303 176C303 180.971 307.03 185 312 185Z" fill="#D4D9D5"/>
<path d="M291.734 87.0912L255.601 87.0112C251.114 87.0013 251.616 92.7988 256.235 94.3289L292.558 106.361C295.066 107.192 297.248 105.98 297.213 103.775L297.024 91.8222C296.986 89.4285 294.379 87.097 291.734 87.0912Z" fill="#D4D9D5"/>
<path d="M249.282 120.574L285.415 120.654C289.902 120.664 289.399 114.866 284.781 113.336L248.458 101.303C245.95 100.473 243.768 101.685 243.803 103.89L243.992 115.843C244.03 118.236 246.637 120.568 249.282 120.574Z" fill="#D4D9D5"/>
<path d="M154.737 182.398L165.694 155.237C167.554 150.627 166.034 144.231 162.3 140.95L24.6612 20.0361C20.927 16.7555 16.3923 17.833 14.5327 22.4426L3.57587 49.6036C1.71633 54.2133 3.23608 60.6095 6.97034 63.89L144.609 184.804C148.343 188.085 152.878 187.007 154.737 182.398Z" fill="#D4D9D5"/>
<path d="M12.6535 184.197L112.772 184.543L23.4162 109.796C-6.45724 135.483 3.74564 171.281 12.6535 184.197Z" fill="#D4D9D5"/>
<path d="M157.118 19.3846L57 19.0383L146.356 93.7861C176.229 68.0984 166.026 32.301 157.118 19.3846Z" fill="#D4D9D5"/>
</svg>
