<svg xmlns="http://www.w3.org/2000/svg" xmlns:xlink="http://www.w3.org/1999/xlink" width="100" height="82" viewBox="0 0 100 82">
  <defs>
    <clipPath id="clip-path">
      <rect id="Rectangle_209" data-name="Rectangle 209" width="100" height="82" transform="translate(-11728 6557)" fill="#fff" stroke="#707070" stroke-width="1"/>
    </clipPath>
  </defs>
  <g id="react" transform="translate(11728 -6557)" clip-path="url(#clip-path)">
    <g id="react-2" data-name="react" transform="translate(-13372.27 6557.617)">
      <path id="Path_3155" data-name="Path 3155" d="M1701.08,40.247c0,.11,0,.22-.01.33s-.01.22-.02.33-.03.219-.04.328l-.06.326c-.02.108-.05.215-.07.322l-.09.319c-.03.105-.07.21-.1.314s-.08.207-.12.308-.09.2-.14.3a1.939,1.939,0,0,1-.15.3c-.05.1-.1.193-.16.287s-.11.188-.18.279-.12.182-.19.27-.13.175-.2.261-.14.169-.21.25-.15.161-.23.239-.16.154-.24.228-.17.146-.25.216-.17.137-.26.2-.18.129-.27.19-.19.12-.28.177-.19.111-.29.163-.19.1-.29.149-.2.092-.31.134-.2.082-.3.119-.21.072-.32.1-.21.061-.32.088-.21.051-.32.072-.21.04-.32.057-.22.03-.33.04-.22.019-.33.024-.22.008-.33.008-.22,0-.33-.008-.22-.013-.33-.024-.22-.024-.33-.04-.22-.035-.32-.057-.22-.046-.33-.072-.21-.056-.32-.088-.21-.066-.31-.1-.21-.077-.31-.119-.2-.087-.3-.134-.2-.1-.29-.149-.2-.106-.29-.163-.19-.115-.28-.177-.18-.125-.27-.19-.18-.133-.26-.2-.17-.142-.25-.216-.16-.15-.24-.228-.15-.158-.23-.239-.14-.165-.21-.25-.14-.172-.21-.261-.13-.179-.19-.27-.12-.185-.17-.279-.12-.19-.17-.287-.1-.2-.15-.3-.09-.2-.13-.3-.08-.2-.12-.308-.07-.208-.1-.314l-.09-.319c-.03-.107-.05-.214-.07-.322l-.06-.326c-.02-.109-.03-.218-.04-.328s-.02-.22-.02-.33-.01-.22-.01-.33,0-.22.01-.33.01-.22.02-.329.02-.219.04-.328l.06-.325c.02-.108.04-.215.07-.322l.09-.319c.03-.105.06-.21.1-.314s.08-.207.12-.309.09-.2.13-.3.1-.2.15-.3.11-.193.17-.288.11-.187.17-.279.13-.182.19-.27.14-.175.21-.26.14-.169.21-.25.15-.161.23-.239.16-.154.24-.228.16-.146.25-.216.17-.138.26-.2.18-.129.27-.19.18-.12.28-.177.19-.111.29-.163.19-.1.29-.149.2-.092.3-.134.21-.082.31-.119.21-.071.31-.1.22-.061.32-.088.22-.051.33-.072.21-.04.32-.056.22-.03.33-.041.22-.019.33-.024.22-.008.33-.008.22,0,.33.008.22.014.33.024.22.024.33.041.21.035.32.056.22.046.32.072.22.056.32.088.21.066.32.1.2.077.3.119.21.087.31.134.19.1.29.149.19.106.29.163.19.116.28.177.18.125.27.19.17.133.26.2.17.142.25.216.16.15.24.228.15.158.23.239.14.165.21.25.14.172.2.26.13.179.19.27.12.185.18.279.11.19.16.287a1.95,1.95,0,0,1,.15.3c.05.1.09.2.14.3s.08.2.12.309.07.208.1.314l.09.319c.02.107.05.214.07.322l.06.325c.01.109.03.218.04.328s.02.219.02.329S1701.08,40.137,1701.08,40.247Z" fill="#d9d9d9" stroke="#d9d9d9" stroke-width="0.249"/>
      <g id="Group_1052" data-name="Group 1052">
        <path id="Path_3156" data-name="Path 3156" d="M1694.35,26.559a75.477,75.477,0,0,1,23.76,3.477c7.63,2.626,12.32,6.607,12.32,10.211,0,3.756-4.97,7.985-13.16,10.7-6.19,2.052-14.34,3.123-22.92,3.123-8.8,0-17.12-1.005-23.39-3.145-7.92-2.708-12.69-6.992-12.69-10.677,0-3.575,4.48-7.525,12-10.147,6.35-2.215,14.95-3.541,24.08-3.541Z" fill="none" stroke="#d9d9d9" stroke-width="7.476"/>
      </g>
      <g id="Group_1053" data-name="Group 1053">
        <path id="Path_3157" data-name="Path 3157" d="M1682.44,33.44a75.434,75.434,0,0,1,14.88-18.852c6.08-5.3,11.87-7.37,14.99-5.57,3.26,1.876,4.44,8.3,2.7,16.748-1.32,6.39-4.46,13.984-8.75,21.418-4.39,7.621-9.42,14.335-14.4,18.689-6.31,5.511-12.4,7.506-15.59,5.665-3.1-1.785-4.28-7.638-2.8-15.463,1.26-6.612,4.41-14.727,8.96-22.633Z" fill="none" stroke="#d9d9d9" stroke-width="7.476"/>
        <path id="Path_3158" data-name="Path 3158" d="M1682.45,47.2a75.6,75.6,0,0,1-8.9-22.31c-1.55-7.917-.45-13.971,2.67-15.777,3.25-1.882,9.4.3,15.85,6.031,4.87,4.332,9.88,10.848,14.18,18.274,4.41,7.613,7.71,15.326,8.99,21.817,1.63,8.215.31,14.491-2.87,16.337-3.1,1.791-8.76-.105-14.79-5.3-5.1-4.39-10.56-11.172-15.13-19.072Z" fill="none" stroke="#d9d9d9" stroke-width="7.476"/>
      </g>
    </g>
  </g>
</svg>
