<svg xmlns="http://www.w3.org/2000/svg" xmlns:xlink="http://www.w3.org/1999/xlink" width="100" height="82" viewBox="0 0 100 82">
  <defs>
    <clipPath id="clip-path">
      <rect id="Rectangle_203" data-name="Rectangle 203" width="100" height="82" transform="translate(-12692 6557)" fill="#fff" stroke="#707070" stroke-width="1"/>
    </clipPath>
  </defs>
  <g id="wp" transform="translate(12692 -6557)" clip-path="url(#clip-path)">
    <path id="wp-2" data-name="wp" d="M684.135,40.307a37.8,37.8,0,0,0,21.3,34.02l-18.032-49.4A37.667,37.667,0,0,0,684.135,40.307ZM747.457,38.4a19.918,19.918,0,0,0-3.116-10.424c-1.916-3.116-3.714-5.753-3.714-8.867a6.545,6.545,0,0,1,6.348-6.71l.489.031a37.8,37.8,0,0,0-57.112,7.114c.889.028,1.725.045,2.434.045,3.953,0,10.075-.48,10.075-.48a1.562,1.562,0,0,1,.241,3.114s-2.049.241-4.327.361l13.766,40.945,8.274-24.811-5.888-16.135c-2.037-.121-3.967-.361-3.967-.361a1.562,1.562,0,0,1,.241-3.114s6.242.48,9.957.48c3.953,0,10.074-.48,10.074-.48a1.562,1.562,0,0,1,.241,3.114s-2.05.241-4.326.361l13.662,40.634,3.773-12.6C746.212,45.389,747.457,41.634,747.457,38.4ZM722.6,43.613,711.258,76.571a37.816,37.816,0,0,0,23.233-.6,3.555,3.555,0,0,1-.27-.52ZM755.11,22.171a28.913,28.913,0,0,1,.255,3.887A35.68,35.68,0,0,1,752.489,39.6L740.943,72.981a37.8,37.8,0,0,0,14.167-50.81Z" transform="translate(-13364.135 6557.494)" fill="#d9d9d9" fill-rule="evenodd"/>
  </g>
</svg>
