<svg xmlns="http://www.w3.org/2000/svg" xmlns:xlink="http://www.w3.org/1999/xlink" width="100" height="82" viewBox="0 0 100 82">
  <defs>
    <clipPath id="clip-path">
      <rect id="Rectangle_200" data-name="Rectangle 200" width="100" height="82" transform="translate(-13225 6557)" fill="#fff" stroke="#707070" stroke-width="1"/>
    </clipPath>
  </defs>
  <g id="xd" transform="translate(13225 -6557)" clip-path="url(#clip-path)">
    <g id="xd-2" data-name="xd" transform="translate(-13369.72 6557.316)">
      <path id="Path_3170" data-name="Path 3170" d="M198.315,12.743,180.721,41.781l18.823,30.836a.969.969,0,0,1,.1.709c-.064.222-.284.082-.662.144H185.545c-.946,0-1.608-.033-1.986-.664q-1.893-3.689-3.784-7.33t-4.019-7.425q-2.128-3.782-4.21-7.662h-.094q-1.893,3.784-3.926,7.567t-4.02,7.52q-1.986,3.738-4.067,7.425c-.252.568-.695.626-1.324.626H145.157c-.252,0-.394.1-.426-.153a.948.948,0,0,1,.142-.662l18.255-29.984L145.346,12.648q-.283-.377-.095-.615a.688.688,0,0,1,.568-.236h13.336a1.975,1.975,0,0,1,.852.142,1.711,1.711,0,0,1,.567.52q1.7,3.784,3.784,7.567t4.209,7.472q2.128,3.689,3.925,7.472h.1q1.89-3.877,3.831-7.567t3.972-7.425q2.034-3.735,3.926-7.425a1.447,1.447,0,0,1,.378-.615,1.373,1.373,0,0,1,.757-.142h12.391a.542.542,0,0,1,.473.946Z" fill="#d9d9d9"/>
      <path id="Path_3171" data-name="Path 3171" d="M225.46,74.7a29.307,29.307,0,0,1-12.628-2.648,20.08,20.08,0,0,1-8.844-7.993q-3.216-5.343-3.216-13.384a24.709,24.709,0,0,1,3.216-12.391,23.608,23.608,0,0,1,9.365-9.08A30.226,30.226,0,0,1,228.2,25.8q.471,0,1.229.047t1.8.142V7.351c0-.44.19-.662.568-.662h11.918a.5.5,0,0,1,.229.021.5.5,0,0,1,.339.547v55.9q0,1.61.141,3.5t.237,3.405a.979.979,0,0,1-.568.946,46.907,46.907,0,0,1-9.553,2.837A51.279,51.279,0,0,1,225.46,74.7Zm5.769-11.729V37.146a9.376,9.376,0,0,0-1.56-.284,18.84,18.84,0,0,0-1.939-.094,14.608,14.608,0,0,0-6.622,1.513A12.172,12.172,0,0,0,214.2,50.1a16.67,16.67,0,0,0,.993,6.054,11.5,11.5,0,0,0,2.648,4.162,10.09,10.09,0,0,0,3.973,2.365,15.566,15.566,0,0,0,4.871.757q1.325,0,2.459-.095A10.112,10.112,0,0,0,231.229,62.968Z" fill="#d9d9d9"/>
    </g>
  </g>
</svg>
